<?xml version="1.0" encoding="utf-8" standalone="no"?>
<!DOCTYPE svg PUBLIC "-//W3C//DTD SVG 1.1//EN"
  "http://www.w3.org/Graphics/SVG/1.1/DTD/svg11.dtd">
<svg xmlns:xlink="http://www.w3.org/1999/xlink" width="504pt" height="403.2pt" viewBox="0 0 504 403.2" xmlns="http://www.w3.org/2000/svg" version="1.1">
 <metadata>
  <rdf:RDF xmlns:dc="http://purl.org/dc/elements/1.1/" xmlns:cc="http://creativecommons.org/ns#" xmlns:rdf="http://www.w3.org/1999/02/22-rdf-syntax-ns#">
   <cc:Work>
    <dc:type rdf:resource="http://purl.org/dc/dcmitype/StillImage"/>
    <dc:date>2026-08-18T11:01:03.366095</dc:date>
    <dc:format>image/svg+xml</dc:format>
    <dc:creator>
     <cc:Agent>
      <dc:title>Matplotlib v3.10.8, https://matplotlib.org/</dc:title>
     </cc:Agent>
    </dc:creator>
   </cc:Work>
  </rdf:RDF>
 </metadata>
 <defs>
  <style type="text/css">*{stroke-linejoin: round; stroke-linecap: butt}</style>
 </defs>
 <g id="figure_1">
  <g id="patch_1">
   <path d="M 0 403.2 
L 504 403.2 
L 504 0 
L 0 0 
z
" style="fill: #ffffff"/>
  </g>
  <g id="axes_1">
   <g id="patch_2">
    <path d="M 42.77 333.63296 
L 494.28 333.63296 
L 494.28 15.768 
L 42.77 15.768 
z
" style="fill: #ffffff"/>
   </g>
   <g id="matplotlib.axis_1">
    <g id="xtick_1">
     <g id="line2d_1">
      <defs>
       <path id="mb52c259cdb" d="M 0 0 
L 0 3.5 
" style="stroke: #000000; stroke-width: 0.8"/>
      </defs>
      <g>
       <use xlink:href="#mb52c259cdb" x="81.95062" y="333.63296" style="stroke: #000000; stroke-width: 0.8"/>
      </g>
     </g>
     <g id="text_1">
      <text style="font-size: 8px; font-family: 'Cambria', 'Georgia', 'DejaVu Serif', serif; text-anchor: middle" x="81.95062" y="346.22296" transform="rotate(-0 81.95062 346.22296)">V1</text>
     </g>
    </g>
    <g id="xtick_2">
     <g id="line2d_2">
      <g>
       <use xlink:href="#mb52c259cdb" x="128.594215" y="333.63296" style="stroke: #000000; stroke-width: 0.8"/>
      </g>
     </g>
     <g id="text_2">
      <text style="font-size: 8px; font-family: 'Cambria', 'Georgia', 'DejaVu Serif', serif; text-anchor: middle" x="128.594215" y="346.22296" transform="rotate(-0 128.594215 346.22296)">V2</text>
     </g>
    </g>
    <g id="xtick_3">
     <g id="line2d_3">
      <g>
       <use xlink:href="#mb52c259cdb" x="175.23781" y="333.63296" style="stroke: #000000; stroke-width: 0.8"/>
      </g>
     </g>
     <g id="text_3">
      <text style="font-size: 8px; font-family: 'Cambria', 'Georgia', 'DejaVu Serif', serif; text-anchor: middle" x="175.23781" y="346.22296" transform="rotate(-0 175.23781 346.22296)">V3a/d</text>
     </g>
    </g>
    <g id="xtick_4">
     <g id="line2d_4">
      <g>
       <use xlink:href="#mb52c259cdb" x="221.881405" y="333.63296" style="stroke: #000000; stroke-width: 0.8"/>
      </g>
     </g>
     <g id="text_4">
      <text style="font-size: 8px; font-family: 'Cambria', 'Georgia', 'DejaVu Serif', serif; text-anchor: middle" x="221.881405" y="346.22296" transform="rotate(-0 221.881405 346.22296)">V4</text>
     </g>
    </g>
    <g id="xtick_5">
     <g id="line2d_5">
      <g>
       <use xlink:href="#mb52c259cdb" x="268.525" y="333.63296" style="stroke: #000000; stroke-width: 0.8"/>
      </g>
     </g>
     <g id="text_5">
      <text style="font-size: 8px; font-family: 'Cambria', 'Georgia', 'DejaVu Serif', serif; text-anchor: middle" x="268.525" y="346.22296" transform="rotate(-0 268.525 346.22296)">MT</text>
     </g>
    </g>
    <g id="xtick_6">
     <g id="line2d_6">
      <g>
       <use xlink:href="#mb52c259cdb" x="315.168595" y="333.63296" style="stroke: #000000; stroke-width: 0.8"/>
      </g>
     </g>
     <g id="text_6">
      <text style="font-size: 8px; font-family: 'Cambria', 'Georgia', 'DejaVu Serif', serif; text-anchor: middle" x="315.168595" y="346.22296" transform="rotate(-0 315.168595 346.22296)">MST+FST</text>
     </g>
    </g>
    <g id="xtick_7">
     <g id="line2d_7">
      <g>
       <use xlink:href="#mb52c259cdb" x="361.81219" y="333.63296" style="stroke: #000000; stroke-width: 0.8"/>
      </g>
     </g>
     <g id="text_7">
      <text style="font-size: 8px; font-family: 'Cambria', 'Georgia', 'DejaVu Serif', serif; text-anchor: middle" x="361.81219" y="346.22296" transform="rotate(-0 361.81219 346.22296)">TEO</text>
     </g>
    </g>
    <g id="xtick_8">
     <g id="line2d_8">
      <g>
       <use xlink:href="#mb52c259cdb" x="408.455785" y="333.63296" style="stroke: #000000; stroke-width: 0.8"/>
      </g>
     </g>
     <g id="text_8">
      <text style="font-size: 8px; font-family: 'Cambria', 'Georgia', 'DejaVu Serif', serif; text-anchor: middle" x="408.455785" y="346.22296" transform="rotate(-0 408.455785 346.22296)">FEF</text>
     </g>
    </g>
    <g id="xtick_9">
     <g id="line2d_9">
      <g>
       <use xlink:href="#mb52c259cdb" x="455.09938" y="333.63296" style="stroke: #000000; stroke-width: 0.8"/>
      </g>
     </g>
     <g id="text_9">
      <text style="font-size: 8px; font-family: 'Cambria', 'Georgia', 'DejaVu Serif', serif; text-anchor: middle" x="455.09938" y="346.22296" transform="rotate(-0 455.09938 346.22296)">PFC</text>
     </g>
    </g>
   </g>
   <g id="matplotlib.axis_2">
    <g id="ytick_1">
     <g id="line2d_10">
      <path d="M 42.77 333.63296 
L 494.28 333.63296 
" clip-path="url(#p49162a7e41)" style="fill: none; stroke-dasharray: 0.8,1.32; stroke-dashoffset: 0; stroke: #b0b0b0; stroke-opacity: 0.5; stroke-width: 0.8"/>
     </g>
     <g id="line2d_11">
      <defs>
       <path id="m72a4fbf5cf" d="M 0 0 
L -3.5 0 
" style="stroke: #000000; stroke-width: 0.8"/>
      </defs>
      <g>
       <use xlink:href="#m72a4fbf5cf" x="42.77" y="333.63296" style="stroke: #000000; stroke-width: 0.8"/>
      </g>
     </g>
     <g id="text_10">
      <text style="font-size: 8px; font-family: 'Cambria', 'Georgia', 'DejaVu Serif', serif; text-anchor: end" x="35.77" y="336.42796" transform="rotate(-0 35.77 336.42796)">0</text>
     </g>
    </g>
    <g id="ytick_2">
     <g id="line2d_12">
      <path d="M 42.77 279.757543 
L 494.28 279.757543 
" clip-path="url(#p49162a7e41)" style="fill: none; stroke-dasharray: 0.8,1.32; stroke-dashoffset: 0; stroke: #b0b0b0; stroke-opacity: 0.5; stroke-width: 0.8"/>
     </g>
     <g id="line2d_13">
      <g>
       <use xlink:href="#m72a4fbf5cf" x="42.77" y="279.757543" style="stroke: #000000; stroke-width: 0.8"/>
      </g>
     </g>
     <g id="text_11">
      <text style="font-size: 8px; font-family: 'Cambria', 'Georgia', 'DejaVu Serif', serif; text-anchor: end" x="35.77" y="282.552543" transform="rotate(-0 35.77 282.552543)">20</text>
     </g>
    </g>
    <g id="ytick_3">
     <g id="line2d_14">
      <path d="M 42.77 225.882126 
L 494.28 225.882126 
" clip-path="url(#p49162a7e41)" style="fill: none; stroke-dasharray: 0.8,1.32; stroke-dashoffset: 0; stroke: #b0b0b0; stroke-opacity: 0.5; stroke-width: 0.8"/>
     </g>
     <g id="line2d_15">
      <g>
       <use xlink:href="#m72a4fbf5cf" x="42.77" y="225.882126" style="stroke: #000000; stroke-width: 0.8"/>
      </g>
     </g>
     <g id="text_12">
      <text style="font-size: 8px; font-family: 'Cambria', 'Georgia', 'DejaVu Serif', serif; text-anchor: end" x="35.77" y="228.677126" transform="rotate(-0 35.77 228.677126)">40</text>
     </g>
    </g>
    <g id="ytick_4">
     <g id="line2d_16">
      <path d="M 42.77 172.006709 
L 494.28 172.006709 
" clip-path="url(#p49162a7e41)" style="fill: none; stroke-dasharray: 0.8,1.32; stroke-dashoffset: 0; stroke: #b0b0b0; stroke-opacity: 0.5; stroke-width: 0.8"/>
     </g>
     <g id="line2d_17">
      <g>
       <use xlink:href="#m72a4fbf5cf" x="42.77" y="172.006709" style="stroke: #000000; stroke-width: 0.8"/>
      </g>
     </g>
     <g id="text_13">
      <text style="font-size: 8px; font-family: 'Cambria', 'Georgia', 'DejaVu Serif', serif; text-anchor: end" x="35.77" y="174.801709" transform="rotate(-0 35.77 174.801709)">60</text>
     </g>
    </g>
    <g id="ytick_5">
     <g id="line2d_18">
      <path d="M 42.77 118.131292 
L 494.28 118.131292 
" clip-path="url(#p49162a7e41)" style="fill: none; stroke-dasharray: 0.8,1.32; stroke-dashoffset: 0; stroke: #b0b0b0; stroke-opacity: 0.5; stroke-width: 0.8"/>
     </g>
     <g id="line2d_19">
      <g>
       <use xlink:href="#m72a4fbf5cf" x="42.77" y="118.131292" style="stroke: #000000; stroke-width: 0.8"/>
      </g>
     </g>
     <g id="text_14">
      <text style="font-size: 8px; font-family: 'Cambria', 'Georgia', 'DejaVu Serif', serif; text-anchor: end" x="35.77" y="120.926292" transform="rotate(-0 35.77 120.926292)">80</text>
     </g>
    </g>
    <g id="ytick_6">
     <g id="line2d_20">
      <path d="M 42.77 64.255875 
L 494.28 64.255875 
" clip-path="url(#p49162a7e41)" style="fill: none; stroke-dasharray: 0.8,1.32; stroke-dashoffset: 0; stroke: #b0b0b0; stroke-opacity: 0.5; stroke-width: 0.8"/>
     </g>
     <g id="line2d_21">
      <g>
       <use xlink:href="#m72a4fbf5cf" x="42.77" y="64.255875" style="stroke: #000000; stroke-width: 0.8"/>
      </g>
     </g>
     <g id="text_15">
      <text style="font-size: 8px; font-family: 'Cambria', 'Georgia', 'DejaVu Serif', serif; text-anchor: end" x="35.77" y="67.050875" transform="rotate(-0 35.77 67.050875)">100</text>
     </g>
    </g>
    <g id="text_16">
     <text style="font-size: 9px; font-family: 'Cambria', 'Georgia', 'DejaVu Serif', serif; text-anchor: middle" x="16.515469" y="174.70048" transform="rotate(-90 16.515469 174.70048)">Composition (% of legacy-screened units)</text>
    </g>
   </g>
   <g id="patch_3">
    <path d="M 42.77 333.63296 
L 42.77 15.768 
" style="fill: none; stroke: #333333; stroke-width: 0.8; stroke-linejoin: miter; stroke-linecap: square"/>
   </g>
   <g id="patch_4">
    <path d="M 42.77 333.63296 
L 494.28 333.63296 
" style="fill: none; stroke: #333333; stroke-width: 0.8; stroke-linejoin: miter; stroke-linecap: square"/>
   </g>
   <g id="patch_5">
    <path d="M 63.293182 333.63296 
L 100.608058 333.63296 
L 100.608058 188.949861 
L 63.293182 188.949861 
z
" clip-path="url(#p49162a7e41)" style="fill: #00441b; stroke: #ffffff; stroke-width: 0.4; stroke-linejoin: miter"/>
   </g>
   <g id="patch_6">
    <path d="M 109.936777 333.63296 
L 147.251653 333.63296 
L 147.251653 154.048237 
L 109.936777 154.048237 
z
" clip-path="url(#p49162a7e41)" style="fill: #00441b; stroke: #ffffff; stroke-width: 0.4; stroke-linejoin: miter"/>
   </g>
   <g id="patch_7">
    <path d="M 156.580372 333.63296 
L 193.895248 333.63296 
L 193.895248 308.632767 
L 156.580372 308.632767 
z
" clip-path="url(#p49162a7e41)" style="fill: #00441b; stroke: #ffffff; stroke-width: 0.4; stroke-linejoin: miter"/>
   </g>
   <g id="patch_8">
    <path d="M 203.223967 333.63296 
L 240.538843 333.63296 
L 240.538843 244.119457 
L 203.223967 244.119457 
z
" clip-path="url(#p49162a7e41)" style="fill: #00441b; stroke: #ffffff; stroke-width: 0.4; stroke-linejoin: miter"/>
   </g>
   <g id="patch_9">
    <path d="M 249.867562 333.63296 
L 287.182438 333.63296 
L 287.182438 226.76053 
L 249.867562 226.76053 
z
" clip-path="url(#p49162a7e41)" style="fill: #00441b; stroke: #ffffff; stroke-width: 0.4; stroke-linejoin: miter"/>
   </g>
   <g id="patch_10">
    <path d="M 296.511157 333.63296 
L 333.826033 333.63296 
L 333.826033 276.791924 
L 296.511157 276.791924 
z
" clip-path="url(#p49162a7e41)" style="fill: #00441b; stroke: #ffffff; stroke-width: 0.4; stroke-linejoin: miter"/>
   </g>
   <g id="patch_11">
    <path d="M 343.154752 333.63296 
L 380.469628 333.63296 
L 380.469628 290.306576 
L 343.154752 290.306576 
z
" clip-path="url(#p49162a7e41)" style="fill: #00441b; stroke: #ffffff; stroke-width: 0.4; stroke-linejoin: miter"/>
   </g>
   <g id="patch_12">
    <path d="M 389.798347 333.63296 
L 427.113223 333.63296 
L 427.113223 307.187264 
L 389.798347 307.187264 
z
" clip-path="url(#p49162a7e41)" style="fill: #00441b; stroke: #ffffff; stroke-width: 0.4; stroke-linejoin: miter"/>
   </g>
   <g id="patch_13">
    <path d="M 436.441942 333.63296 
L 473.756818 333.63296 
L 473.756818 311.81721 
L 436.441942 311.81721 
z
" clip-path="url(#p49162a7e41)" style="fill: #00441b; stroke: #ffffff; stroke-width: 0.4; stroke-linejoin: miter"/>
   </g>
   <g id="patch_14">
    <path d="M 63.293182 188.949861 
L 100.608058 188.949861 
L 100.608058 179.431237 
L 63.293182 179.431237 
z
" clip-path="url(#p49162a7e41)" style="fill: #1b9e5a; stroke: #ffffff; stroke-width: 0.4; stroke-linejoin: miter"/>
   </g>
   <g id="patch_15">
    <path d="M 109.936777 154.048237 
L 147.251653 154.048237 
L 147.251653 149.558619 
L 109.936777 149.558619 
z
" clip-path="url(#p49162a7e41)" style="fill: #1b9e5a; stroke: #ffffff; stroke-width: 0.4; stroke-linejoin: miter"/>
   </g>
   <g id="patch_16">
    <path d="M 156.580372 308.632767 
L 193.895248 308.632767 
L 193.895248 295.507665 
L 156.580372 295.507665 
z
" clip-path="url(#p49162a7e41)" style="fill: #1b9e5a; stroke: #ffffff; stroke-width: 0.4; stroke-linejoin: miter"/>
   </g>
   <g id="patch_17">
    <path d="M 203.223967 244.119457 
L 240.538843 244.119457 
L 240.538843 229.897685 
L 203.223967 229.897685 
z
" clip-path="url(#p49162a7e41)" style="fill: #1b9e5a; stroke: #ffffff; stroke-width: 0.4; stroke-linejoin: miter"/>
   </g>
   <g id="patch_18">
    <path d="M 249.867562 226.76053 
L 287.182438 226.76053 
L 287.182438 219.4405 
L 249.867562 219.4405 
z
" clip-path="url(#p49162a7e41)" style="fill: #1b9e5a; stroke: #ffffff; stroke-width: 0.4; stroke-linejoin: miter"/>
   </g>
   <g id="patch_19">
    <path d="M 296.511157 276.791924 
L 333.826033 276.791924 
L 333.826033 271.849225 
L 296.511157 271.849225 
z
" clip-path="url(#p49162a7e41)" style="fill: #1b9e5a; stroke: #ffffff; stroke-width: 0.4; stroke-linejoin: miter"/>
   </g>
   <g id="patch_20">
    <path d="M 343.154752 290.306576 
L 380.469628 290.306576 
L 380.469628 278.062163 
L 343.154752 278.062163 
z
" clip-path="url(#p49162a7e41)" style="fill: #1b9e5a; stroke: #ffffff; stroke-width: 0.4; stroke-linejoin: miter"/>
   </g>
   <g id="patch_21">
    <path d="M 389.798347 307.187264 
L 427.113223 307.187264 
L 427.113223 294.271925 
L 389.798347 294.271925 
z
" clip-path="url(#p49162a7e41)" style="fill: #1b9e5a; stroke: #ffffff; stroke-width: 0.4; stroke-linejoin: miter"/>
   </g>
   <g id="patch_22">
    <path d="M 436.441942 311.81721 
L 473.756818 311.81721 
L 473.756818 294.269759 
L 436.441942 294.269759 
z
" clip-path="url(#p49162a7e41)" style="fill: #1b9e5a; stroke: #ffffff; stroke-width: 0.4; stroke-linejoin: miter"/>
   </g>
   <g id="patch_23">
    <path d="M 63.293182 179.431237 
L 100.608058 179.431237 
L 100.608058 172.768199 
L 63.293182 172.768199 
z
" clip-path="url(#p49162a7e41)" style="fill: #b5651d; stroke: #ffffff; stroke-width: 0.4; stroke-linejoin: miter"/>
   </g>
   <g id="patch_24">
    <path d="M 109.936777 149.558619 
L 147.251653 149.558619 
L 147.251653 145.069001 
L 109.936777 145.069001 
z
" clip-path="url(#p49162a7e41)" style="fill: #b5651d; stroke: #ffffff; stroke-width: 0.4; stroke-linejoin: miter"/>
   </g>
   <g id="patch_25">
    <path d="M 156.580372 295.507665 
L 193.895248 295.507665 
L 193.895248 280.507549 
L 156.580372 280.507549 
z
" clip-path="url(#p49162a7e41)" style="fill: #b5651d; stroke: #ffffff; stroke-width: 0.4; stroke-linejoin: miter"/>
   </g>
   <g id="patch_26">
    <path d="M 203.223967 229.897685 
L 240.538843 229.897685 
L 240.538843 215.675914 
L 203.223967 215.675914 
z
" clip-path="url(#p49162a7e41)" style="fill: #b5651d; stroke: #ffffff; stroke-width: 0.4; stroke-linejoin: miter"/>
   </g>
   <g id="patch_27">
    <path d="M 249.867562 219.4405 
L 287.182438 219.4405 
L 287.182438 215.048482 
L 249.867562 215.048482 
z
" clip-path="url(#p49162a7e41)" style="fill: #b5651d; stroke: #ffffff; stroke-width: 0.4; stroke-linejoin: miter"/>
   </g>
   <g id="patch_28">
    <path d="M 296.511157 271.849225 
L 333.826033 271.849225 
L 333.826033 257.021129 
L 296.511157 257.021129 
z
" clip-path="url(#p49162a7e41)" style="fill: #b5651d; stroke: #ffffff; stroke-width: 0.4; stroke-linejoin: miter"/>
   </g>
   <g id="patch_29">
    <path d="M 343.154752 278.062163 
L 380.469628 278.062163 
L 380.469628 264.875872 
L 343.154752 264.875872 
z
" clip-path="url(#p49162a7e41)" style="fill: #b5651d; stroke: #ffffff; stroke-width: 0.4; stroke-linejoin: miter"/>
   </g>
   <g id="patch_30">
    <path d="M 389.798347 294.271925 
L 427.113223 294.271925 
L 427.113223 281.971601 
L 389.798347 281.971601 
z
" clip-path="url(#p49162a7e41)" style="fill: #b5651d; stroke: #ffffff; stroke-width: 0.4; stroke-linejoin: miter"/>
   </g>
   <g id="patch_31">
    <path d="M 436.441942 294.269759 
L 473.756818 294.269759 
L 473.756818 278.61933 
L 436.441942 278.61933 
z
" clip-path="url(#p49162a7e41)" style="fill: #b5651d; stroke: #ffffff; stroke-width: 0.4; stroke-linejoin: miter"/>
   </g>
   <g id="patch_32">
    <path d="M 63.293182 172.768199 
L 100.608058 172.768199 
L 100.608058 146.116049 
L 63.293182 146.116049 
z
" clip-path="url(#p49162a7e41)" style="fill: #6e3a0a; stroke: #ffffff; stroke-width: 0.4; stroke-linejoin: miter"/>
   </g>
   <g id="patch_33">
    <path d="M 109.936777 145.069001 
L 147.251653 145.069001 
L 147.251653 119.029216 
L 109.936777 119.029216 
z
" clip-path="url(#p49162a7e41)" style="fill: #6e3a0a; stroke: #ffffff; stroke-width: 0.4; stroke-linejoin: miter"/>
   </g>
   <g id="patch_34">
    <path d="M 156.580372 280.507549 
L 193.895248 280.507549 
L 193.895248 242.382254 
L 156.580372 242.382254 
z
" clip-path="url(#p49162a7e41)" style="fill: #6e3a0a; stroke: #ffffff; stroke-width: 0.4; stroke-linejoin: miter"/>
   </g>
   <g id="patch_35">
    <path d="M 203.223967 215.675914 
L 240.538843 215.675914 
L 240.538843 158.788827 
L 203.223967 158.788827 
z
" clip-path="url(#p49162a7e41)" style="fill: #6e3a0a; stroke: #ffffff; stroke-width: 0.4; stroke-linejoin: miter"/>
   </g>
   <g id="patch_36">
    <path d="M 249.867562 215.048482 
L 287.182438 215.048482 
L 287.182438 196.016406 
L 249.867562 196.016406 
z
" clip-path="url(#p49162a7e41)" style="fill: #6e3a0a; stroke: #ffffff; stroke-width: 0.4; stroke-linejoin: miter"/>
   </g>
   <g id="patch_37">
    <path d="M 296.511157 257.021129 
L 333.826033 257.021129 
L 333.826033 227.364936 
L 296.511157 227.364936 
z
" clip-path="url(#p49162a7e41)" style="fill: #6e3a0a; stroke: #ffffff; stroke-width: 0.4; stroke-linejoin: miter"/>
   </g>
   <g id="patch_38">
    <path d="M 343.154752 264.875872 
L 380.469628 264.875872 
L 380.469628 201.770051 
L 343.154752 201.770051 
z
" clip-path="url(#p49162a7e41)" style="fill: #6e3a0a; stroke: #ffffff; stroke-width: 0.4; stroke-linejoin: miter"/>
   </g>
   <g id="patch_39">
    <path d="M 389.798347 281.971601 
L 427.113223 281.971601 
L 427.113223 271.516326 
L 389.798347 271.516326 
z
" clip-path="url(#p49162a7e41)" style="fill: #6e3a0a; stroke: #ffffff; stroke-width: 0.4; stroke-linejoin: miter"/>
   </g>
   <g id="patch_40">
    <path d="M 436.441942 278.61933 
L 473.756818 278.61933 
L 473.756818 271.505499 
L 436.441942 271.505499 
z
" clip-path="url(#p49162a7e41)" style="fill: #6e3a0a; stroke: #ffffff; stroke-width: 0.4; stroke-linejoin: miter"/>
   </g>
   <g id="patch_41">
    <path d="M 63.293182 146.116049 
L 100.608058 146.116049 
L 100.608058 143.260462 
L 63.293182 143.260462 
z
" clip-path="url(#p49162a7e41)" style="fill: #2c7fb8; stroke: #ffffff; stroke-width: 0.4; stroke-linejoin: miter"/>
   </g>
   <g id="patch_42">
    <path d="M 109.936777 119.029216 
L 147.251653 119.029216 
L 147.251653 118.131292 
L 109.936777 118.131292 
z
" clip-path="url(#p49162a7e41)" style="fill: #2c7fb8; stroke: #ffffff; stroke-width: 0.4; stroke-linejoin: miter"/>
   </g>
   <g id="patch_43">
    <path d="M 156.580372 242.382254 
L 193.895248 242.382254 
L 193.895248 233.007181 
L 156.580372 233.007181 
z
" clip-path="url(#p49162a7e41)" style="fill: #2c7fb8; stroke: #ffffff; stroke-width: 0.4; stroke-linejoin: miter"/>
   </g>
   <g id="patch_44">
    <path d="M 203.223967 158.788827 
L 240.538843 158.788827 
L 240.538843 152.096229 
L 203.223967 152.096229 
z
" clip-path="url(#p49162a7e41)" style="fill: #2c7fb8; stroke: #ffffff; stroke-width: 0.4; stroke-linejoin: miter"/>
   </g>
   <g id="patch_45">
    <path d="M 249.867562 196.016406 
L 287.182438 196.016406 
L 287.182438 194.5524 
L 249.867562 194.5524 
z
" clip-path="url(#p49162a7e41)" style="fill: #2c7fb8; stroke: #ffffff; stroke-width: 0.4; stroke-linejoin: miter"/>
   </g>
   <g id="patch_46">
    <path d="M 296.511157 227.364936 
L 333.826033 227.364936 
L 333.826033 222.422237 
L 296.511157 222.422237 
z
" clip-path="url(#p49162a7e41)" style="fill: #2c7fb8; stroke: #ffffff; stroke-width: 0.4; stroke-linejoin: miter"/>
   </g>
   <g id="patch_47">
    <path d="M 343.154752 201.770051 
L 380.469628 201.770051 
L 380.469628 194.235028 
L 343.154752 194.235028 
z
" clip-path="url(#p49162a7e41)" style="fill: #2c7fb8; stroke: #ffffff; stroke-width: 0.4; stroke-linejoin: miter"/>
   </g>
   <g id="patch_48">
    <path d="M 389.798347 271.516326 
L 427.113223 271.516326 
L 427.113223 267.211213 
L 389.798347 267.211213 
z
" clip-path="url(#p49162a7e41)" style="fill: #2c7fb8; stroke: #ffffff; stroke-width: 0.4; stroke-linejoin: miter"/>
   </g>
   <g id="patch_49">
    <path d="M 436.441942 271.505499 
L 473.756818 271.505499 
L 473.756818 261.546135 
L 436.441942 261.546135 
z
" clip-path="url(#p49162a7e41)" style="fill: #2c7fb8; stroke: #ffffff; stroke-width: 0.4; stroke-linejoin: miter"/>
   </g>
   <g id="patch_50">
    <path d="M 63.293182 143.260462 
L 100.608058 143.260462 
L 100.608058 143.260462 
L 63.293182 143.260462 
z
" clip-path="url(#p49162a7e41)" style="fill: #253494; stroke: #ffffff; stroke-width: 0.4; stroke-linejoin: miter"/>
   </g>
   <g id="patch_51">
    <path d="M 109.936777 118.131292 
L 147.251653 118.131292 
L 147.251653 118.131292 
L 109.936777 118.131292 
z
" clip-path="url(#p49162a7e41)" style="fill: #253494; stroke: #ffffff; stroke-width: 0.4; stroke-linejoin: miter"/>
   </g>
   <g id="patch_52">
    <path d="M 156.580372 233.007181 
L 193.895248 233.007181 
L 193.895248 233.007181 
L 156.580372 233.007181 
z
" clip-path="url(#p49162a7e41)" style="fill: #253494; stroke: #ffffff; stroke-width: 0.4; stroke-linejoin: miter"/>
   </g>
   <g id="patch_53">
    <path d="M 203.223967 152.096229 
L 240.538843 152.096229 
L 240.538843 152.096229 
L 203.223967 152.096229 
z
" clip-path="url(#p49162a7e41)" style="fill: #253494; stroke: #ffffff; stroke-width: 0.4; stroke-linejoin: miter"/>
   </g>
   <g id="patch_54">
    <path d="M 249.867562 194.5524 
L 287.182438 194.5524 
L 287.182438 194.5524 
L 249.867562 194.5524 
z
" clip-path="url(#p49162a7e41)" style="fill: #253494; stroke: #ffffff; stroke-width: 0.4; stroke-linejoin: miter"/>
   </g>
   <g id="patch_55">
    <path d="M 296.511157 222.422237 
L 333.826033 222.422237 
L 333.826033 222.422237 
L 296.511157 222.422237 
z
" clip-path="url(#p49162a7e41)" style="fill: #253494; stroke: #ffffff; stroke-width: 0.4; stroke-linejoin: miter"/>
   </g>
   <g id="patch_56">
    <path d="M 343.154752 194.235028 
L 380.469628 194.235028 
L 380.469628 194.235028 
L 343.154752 194.235028 
z
" clip-path="url(#p49162a7e41)" style="fill: #253494; stroke: #ffffff; stroke-width: 0.4; stroke-linejoin: miter"/>
   </g>
   <g id="patch_57">
    <path d="M 389.798347 267.211213 
L 427.113223 267.211213 
L 427.113223 267.211213 
L 389.798347 267.211213 
z
" clip-path="url(#p49162a7e41)" style="fill: #253494; stroke: #ffffff; stroke-width: 0.4; stroke-linejoin: miter"/>
   </g>
   <g id="patch_58">
    <path d="M 436.441942 261.546135 
L 473.756818 261.546135 
L 473.756818 261.546135 
L 436.441942 261.546135 
z
" clip-path="url(#p49162a7e41)" style="fill: #253494; stroke: #ffffff; stroke-width: 0.4; stroke-linejoin: miter"/>
   </g>
   <g id="patch_59">
    <path d="M 63.293182 143.260462 
L 100.608058 143.260462 
L 100.608058 139.453012 
L 63.293182 139.453012 
z
" clip-path="url(#p49162a7e41)" style="fill: #c51b8a; stroke: #ffffff; stroke-width: 0.4; stroke-linejoin: miter"/>
   </g>
   <g id="patch_60">
    <path d="M 109.936777 118.131292 
L 147.251653 118.131292 
L 147.251653 109.152056 
L 109.936777 109.152056 
z
" clip-path="url(#p49162a7e41)" style="fill: #c51b8a; stroke: #ffffff; stroke-width: 0.4; stroke-linejoin: miter"/>
   </g>
   <g id="patch_61">
    <path d="M 156.580372 233.007181 
L 193.895248 233.007181 
L 193.895248 228.632147 
L 156.580372 228.632147 
z
" clip-path="url(#p49162a7e41)" style="fill: #c51b8a; stroke: #ffffff; stroke-width: 0.4; stroke-linejoin: miter"/>
   </g>
   <g id="patch_62">
    <path d="M 203.223967 152.096229 
L 240.538843 152.096229 
L 240.538843 145.403631 
L 203.223967 145.403631 
z
" clip-path="url(#p49162a7e41)" style="fill: #c51b8a; stroke: #ffffff; stroke-width: 0.4; stroke-linejoin: miter"/>
   </g>
   <g id="patch_63">
    <path d="M 249.867562 194.5524 
L 287.182438 194.5524 
L 287.182438 188.696376 
L 249.867562 188.696376 
z
" clip-path="url(#p49162a7e41)" style="fill: #c51b8a; stroke: #ffffff; stroke-width: 0.4; stroke-linejoin: miter"/>
   </g>
   <g id="patch_64">
    <path d="M 296.511157 222.422237 
L 333.826033 222.422237 
L 333.826033 215.008189 
L 296.511157 215.008189 
z
" clip-path="url(#p49162a7e41)" style="fill: #c51b8a; stroke: #ffffff; stroke-width: 0.4; stroke-linejoin: miter"/>
   </g>
   <g id="patch_65">
    <path d="M 343.154752 194.235028 
L 380.469628 194.235028 
L 380.469628 190.467516 
L 343.154752 190.467516 
z
" clip-path="url(#p49162a7e41)" style="fill: #c51b8a; stroke: #ffffff; stroke-width: 0.4; stroke-linejoin: miter"/>
   </g>
   <g id="patch_66">
    <path d="M 389.798347 267.211213 
L 427.113223 267.211213 
L 427.113223 261.676067 
L 389.798347 261.676067 
z
" clip-path="url(#p49162a7e41)" style="fill: #c51b8a; stroke: #ffffff; stroke-width: 0.4; stroke-linejoin: miter"/>
   </g>
   <g id="patch_67">
    <path d="M 436.441942 261.546135 
L 473.756818 261.546135 
L 473.756818 254.906558 
L 436.441942 254.906558 
z
" clip-path="url(#p49162a7e41)" style="fill: #c51b8a; stroke: #ffffff; stroke-width: 0.4; stroke-linejoin: miter"/>
   </g>
   <g id="patch_68">
    <path d="M 63.293182 139.453012 
L 100.608058 139.453012 
L 100.608058 139.453012 
L 63.293182 139.453012 
z
" clip-path="url(#p49162a7e41)" style="fill: #7a0177; stroke: #ffffff; stroke-width: 0.4; stroke-linejoin: miter"/>
   </g>
   <g id="patch_69">
    <path d="M 109.936777 109.152056 
L 147.251653 109.152056 
L 147.251653 109.152056 
L 109.936777 109.152056 
z
" clip-path="url(#p49162a7e41)" style="fill: #7a0177; stroke: #ffffff; stroke-width: 0.4; stroke-linejoin: miter"/>
   </g>
   <g id="patch_70">
    <path d="M 156.580372 228.632147 
L 193.895248 228.632147 
L 193.895248 228.632147 
L 156.580372 228.632147 
z
" clip-path="url(#p49162a7e41)" style="fill: #7a0177; stroke: #ffffff; stroke-width: 0.4; stroke-linejoin: miter"/>
   </g>
   <g id="patch_71">
    <path d="M 203.223967 145.403631 
L 240.538843 145.403631 
L 240.538843 132.855009 
L 203.223967 132.855009 
z
" clip-path="url(#p49162a7e41)" style="fill: #7a0177; stroke: #ffffff; stroke-width: 0.4; stroke-linejoin: miter"/>
   </g>
   <g id="patch_72">
    <path d="M 249.867562 188.696376 
L 287.182438 188.696376 
L 287.182438 188.696376 
L 249.867562 188.696376 
z
" clip-path="url(#p49162a7e41)" style="fill: #7a0177; stroke: #ffffff; stroke-width: 0.4; stroke-linejoin: miter"/>
   </g>
   <g id="patch_73">
    <path d="M 296.511157 215.008189 
L 333.826033 215.008189 
L 333.826033 215.008189 
L 296.511157 215.008189 
z
" clip-path="url(#p49162a7e41)" style="fill: #7a0177; stroke: #ffffff; stroke-width: 0.4; stroke-linejoin: miter"/>
   </g>
   <g id="patch_74">
    <path d="M 343.154752 190.467516 
L 380.469628 190.467516 
L 380.469628 179.164981 
L 343.154752 179.164981 
z
" clip-path="url(#p49162a7e41)" style="fill: #7a0177; stroke: #ffffff; stroke-width: 0.4; stroke-linejoin: miter"/>
   </g>
   <g id="patch_75">
    <path d="M 389.798347 261.676067 
L 427.113223 261.676067 
L 427.113223 256.755938 
L 389.798347 256.755938 
z
" clip-path="url(#p49162a7e41)" style="fill: #7a0177; stroke: #ffffff; stroke-width: 0.4; stroke-linejoin: miter"/>
   </g>
   <g id="patch_76">
    <path d="M 436.441942 254.906558 
L 473.756818 254.906558 
L 473.756818 248.741238 
L 436.441942 248.741238 
z
" clip-path="url(#p49162a7e41)" style="fill: #7a0177; stroke: #ffffff; stroke-width: 0.4; stroke-linejoin: miter"/>
   </g>
   <g id="patch_77">
    <path d="M 63.293182 139.453012 
L 100.608058 139.453012 
L 100.608058 64.255875 
L 63.293182 64.255875 
z
" clip-path="url(#p49162a7e41)" style="fill: #bdbdbd; stroke: #ffffff; stroke-width: 0.4; stroke-linejoin: miter"/>
   </g>
   <g id="patch_78">
    <path d="M 109.936777 109.152056 
L 147.251653 109.152056 
L 147.251653 64.255875 
L 109.936777 64.255875 
z
" clip-path="url(#p49162a7e41)" style="fill: #bdbdbd; stroke: #ffffff; stroke-width: 0.4; stroke-linejoin: miter"/>
   </g>
   <g id="patch_79">
    <path d="M 156.580372 228.632147 
L 193.895248 228.632147 
L 193.895248 64.255875 
L 156.580372 64.255875 
z
" clip-path="url(#p49162a7e41)" style="fill: #bdbdbd; stroke: #ffffff; stroke-width: 0.4; stroke-linejoin: miter"/>
   </g>
   <g id="patch_80">
    <path d="M 203.223967 132.855009 
L 240.538843 132.855009 
L 240.538843 64.255875 
L 203.223967 64.255875 
z
" clip-path="url(#p49162a7e41)" style="fill: #bdbdbd; stroke: #ffffff; stroke-width: 0.4; stroke-linejoin: miter"/>
   </g>
   <g id="patch_81">
    <path d="M 249.867562 188.696376 
L 287.182438 188.696376 
L 287.182438 64.255875 
L 249.867562 64.255875 
z
" clip-path="url(#p49162a7e41)" style="fill: #bdbdbd; stroke: #ffffff; stroke-width: 0.4; stroke-linejoin: miter"/>
   </g>
   <g id="patch_82">
    <path d="M 296.511157 215.008189 
L 333.826033 215.008189 
L 333.826033 64.255875 
L 296.511157 64.255875 
z
" clip-path="url(#p49162a7e41)" style="fill: #bdbdbd; stroke: #ffffff; stroke-width: 0.4; stroke-linejoin: miter"/>
   </g>
   <g id="patch_83">
    <path d="M 343.154752 179.164981 
L 380.469628 179.164981 
L 380.469628 64.255875 
L 343.154752 64.255875 
z
" clip-path="url(#p49162a7e41)" style="fill: #bdbdbd; stroke: #ffffff; stroke-width: 0.4; stroke-linejoin: miter"/>
   </g>
   <g id="patch_84">
    <path d="M 389.798347 256.755938 
L 427.113223 256.755938 
L 427.113223 64.255875 
L 389.798347 64.255875 
z
" clip-path="url(#p49162a7e41)" style="fill: #bdbdbd; stroke: #ffffff; stroke-width: 0.4; stroke-linejoin: miter"/>
   </g>
   <g id="patch_85">
    <path d="M 436.441942 248.741238 
L 473.756818 248.741238 
L 473.756818 64.255875 
L 436.441942 64.255875 
z
" clip-path="url(#p49162a7e41)" style="fill: #bdbdbd; stroke: #ffffff; stroke-width: 0.4; stroke-linejoin: miter"/>
   </g>
   <g id="text_17">
    <text style="font-size: 6.5px; font-family: 'Cambria', 'Georgia', 'DejaVu Serif', serif; text-anchor: middle; fill: #4c4c4c" x="81.95062" y="54.809563" transform="rotate(-0 81.95062 54.809563)">n=283</text>
   </g>
   <g id="text_18">
    <text style="font-size: 6.5px; font-family: 'Cambria', 'Georgia', 'DejaVu Serif', serif; text-anchor: middle; fill: #4c4c4c" x="128.594215" y="54.809563" transform="rotate(-0 128.594215 54.809563)">n=300</text>
   </g>
   <g id="text_19">
    <text style="font-size: 6.5px; font-family: 'Cambria', 'Georgia', 'DejaVu Serif', serif; text-anchor: middle; fill: #4c4c4c" x="175.23781" y="54.809563" transform="rotate(-0 175.23781 54.809563)">n=431</text>
   </g>
   <g id="text_20">
    <text style="font-size: 6.5px; font-family: 'Cambria', 'Georgia', 'DejaVu Serif', serif; text-anchor: middle; fill: #4c4c4c" x="221.881405" y="54.809563" transform="rotate(-0 221.881405 54.809563)">n=322</text>
   </g>
   <g id="text_21">
    <text style="font-size: 6.5px; font-family: 'Cambria', 'Georgia', 'DejaVu Serif', serif; text-anchor: middle; fill: #4c4c4c" x="268.525" y="54.809563" transform="rotate(-0 268.525 54.809563)">n=184</text>
   </g>
   <g id="text_22">
    <text style="font-size: 6.5px; font-family: 'Cambria', 'Georgia', 'DejaVu Serif', serif; text-anchor: middle; fill: #4c4c4c" x="315.168595" y="54.809563" transform="rotate(-0 315.168595 54.809563)">n=109</text>
   </g>
   <g id="text_23">
    <text style="font-size: 6.5px; font-family: 'Cambria', 'Georgia', 'DejaVu Serif', serif; text-anchor: middle; fill: #4c4c4c" x="361.81219" y="54.809563" transform="rotate(-0 361.81219 54.809563)">n=286</text>
   </g>
   <g id="text_24">
    <text style="font-size: 6.5px; font-family: 'Cambria', 'Georgia', 'DejaVu Serif', serif; text-anchor: middle; fill: #4c4c4c" x="408.455785" y="54.809563" transform="rotate(-0 408.455785 54.809563)">n=438</text>
   </g>
   <g id="text_25">
    <text style="font-size: 6.5px; font-family: 'Cambria', 'Georgia', 'DejaVu Serif', serif; text-anchor: middle; fill: #4c4c4c" x="455.09938" y="54.809563" transform="rotate(-0 455.09938 54.809563)">n=568</text>
   </g>
   <g id="text_26">
    <text style="font-weight: 700; font-size: 14px; font-family: 'Cambria', 'Georgia', 'DejaVu Serif', serif; text-anchor: middle; fill: #ff0000" x="221.881405" y="40.742698" transform="rotate(-0 221.881405 40.742698)">*</text>
   </g>
   <g id="text_27">
    <text style="font-weight: 700; font-size: 14px; font-family: 'Cambria', 'Georgia', 'DejaVu Serif', serif; text-anchor: middle; fill: #ff0000" x="361.81219" y="40.742698" transform="rotate(-0 361.81219 40.742698)">*</text>
   </g>
   <g id="text_28">
    <text style="font-weight: 700; font-size: 14px; font-family: 'Cambria', 'Georgia', 'DejaVu Serif', serif; text-anchor: middle; fill: #ff0000" x="408.455785" y="40.742698" transform="rotate(-0 408.455785 40.742698)">*</text>
   </g>
   <g id="text_29">
    <text style="font-weight: 700; font-size: 14px; font-family: 'Cambria', 'Georgia', 'DejaVu Serif', serif; text-anchor: middle; fill: #ff0000" x="455.09938" y="40.742698" transform="rotate(-0 455.09938 40.742698)">*</text>
   </g>
   <g id="legend_1">
    <g id="patch_86">
     <path d="M 102.177812 379.002168 
L 109.327812 379.002168 
L 109.327812 374.452168 
L 102.177812 374.452168 
z
" style="fill: #00441b; stroke: #ffffff; stroke-width: 0.4; stroke-linejoin: miter"/>
    </g>
    <g id="text_30">
     <text style="font-size: 6.5px; font-family: 'Cambria', 'Georgia', 'DejaVu Serif', serif; text-anchor: start" x="114.527812" y="379.002168" transform="rotate(-0 114.527812 379.002168)">S++ (n=730)</text>
    </g>
    <g id="patch_87">
     <path d="M 102.177812 388.186465 
L 109.327812 388.186465 
L 109.327812 383.636465 
L 102.177812 383.636465 
z
" style="fill: #1b9e5a; stroke: #ffffff; stroke-width: 0.4; stroke-linejoin: miter"/>
    </g>
    <g id="text_31">
     <text style="font-size: 6.5px; font-family: 'Cambria', 'Georgia', 'DejaVu Serif', serif; text-anchor: start" x="114.527812" y="388.186465" transform="rotate(-0 114.527812 388.186465)">S+ (n=131)</text>
    </g>
    <g id="patch_88">
     <path d="M 155.221875 379.002168 
L 162.371875 379.002168 
L 162.371875 374.452168 
L 155.221875 374.452168 
z
" style="fill: #b5651d; stroke: #ffffff; stroke-width: 0.4; stroke-linejoin: miter"/>
    </g>
    <g id="text_32">
     <text style="font-size: 6.5px; font-family: 'Cambria', 'Georgia', 'DejaVu Serif', serif; text-anchor: start" x="167.571875" y="379.002168" transform="rotate(-0 167.571875 379.002168)">S- (n=129)</text>
    </g>
    <g id="patch_89">
     <path d="M 155.221875 388.186465 
L 162.371875 388.186465 
L 162.371875 383.636465 
L 155.221875 383.636465 
z
" style="fill: #6e3a0a; stroke: #ffffff; stroke-width: 0.4; stroke-linejoin: miter"/>
    </g>
    <g id="text_33">
     <text style="font-size: 6.5px; font-family: 'Cambria', 'Georgia', 'DejaVu Serif', serif; text-anchor: start" x="167.571875" y="388.186465" transform="rotate(-0 167.571875 388.186465)">S-- (n=310)</text>
    </g>
    <g id="patch_90">
     <path d="M 205.383594 379.002168 
L 212.533594 379.002168 
L 212.533594 374.452168 
L 205.383594 374.452168 
z
" style="fill: #2c7fb8; stroke: #ffffff; stroke-width: 0.4; stroke-linejoin: miter"/>
    </g>
    <g id="text_34">
     <text style="font-size: 6.5px; font-family: 'Cambria', 'Georgia', 'DejaVu Serif', serif; text-anchor: start" x="217.733594" y="379.002168" transform="rotate(-0 217.733594 379.002168)">O- (n=66)</text>
    </g>
    <g id="patch_91">
     <path d="M 205.383594 388.186465 
L 212.533594 388.186465 
L 212.533594 383.636465 
L 205.383594 383.636465 
z
" style="fill: #253494; stroke: #ffffff; stroke-width: 0.4; stroke-linejoin: miter"/>
    </g>
    <g id="text_35">
     <text style="font-size: 6.5px; font-family: 'Cambria', 'Georgia', 'DejaVu Serif', serif; text-anchor: start" x="217.733594" y="388.186465" transform="rotate(-0 217.733594 388.186465)">O-- (n=0)</text>
    </g>
    <g id="patch_92">
     <path d="M 250.809453 379.002168 
L 257.959453 379.002168 
L 257.959453 374.452168 
L 250.809453 374.452168 
z
" style="fill: #c51b8a; stroke: #ffffff; stroke-width: 0.4; stroke-linejoin: miter"/>
    </g>
    <g id="text_36">
     <text style="font-size: 6.5px; font-family: 'Cambria', 'Georgia', 'DejaVu Serif', serif; text-anchor: start" x="263.159453" y="379.002168" transform="rotate(-0 263.159453 379.002168)">O+ (n=63)</text>
    </g>
    <g id="patch_93">
     <path d="M 250.809453 388.186465 
L 257.959453 388.186465 
L 257.959453 383.636465 
L 250.809453 383.636465 
z
" style="fill: #7a0177; stroke: #ffffff; stroke-width: 0.4; stroke-linejoin: miter"/>
    </g>
    <g id="text_37">
     <text style="font-size: 6.5px; font-family: 'Cambria', 'Georgia', 'DejaVu Serif', serif; text-anchor: start" x="263.159453" y="388.186465" transform="rotate(-0 263.159453 388.186465)">O++ (n=48)</text>
    </g>
    <g id="patch_94">
     <path d="M 301.275859 379.002168 
L 308.425859 379.002168 
L 308.425859 374.452168 
L 301.275859 374.452168 
z
" style="fill: #bdbdbd; stroke: #ffffff; stroke-width: 0.4; stroke-linejoin: miter"/>
    </g>
    <g id="text_38">
     <text style="font-size: 6.5px; font-family: 'Cambria', 'Georgia', 'DejaVu Serif', serif; text-anchor: start" x="313.625859" y="379.002168" transform="rotate(-0 313.625859 379.002168)">Other (n=1444)</text>
    </g>
    <g id="line2d_22">
     <path d="M 363.387422 376.727168 
L 366.962422 376.727168 
L 370.537422 376.727168 
" style="fill: none"/>
     <defs>
      <path id="md916d15b42" d="M 0 -4.5 
L -1.010313 -1.390576 
L -4.279754 -1.390576 
L -1.634721 0.531153 
L -2.645034 3.640576 
L -0 1.718847 
L 2.645034 3.640576 
L 1.634721 0.531153 
L 4.279754 -1.390576 
L 1.010313 -1.390576 
z
" style="stroke: #ff0000; stroke-linejoin: bevel"/>
     </defs>
     <g>
      <use xlink:href="#md916d15b42" x="366.962422" y="376.727168" style="fill: #ff0000; stroke: #ff0000; stroke-linejoin: bevel"/>
     </g>
    </g>
    <g id="text_39">
     <text style="font-size: 6.5px; font-family: 'Cambria', 'Georgia', 'DejaVu Serif', serif; text-anchor: start" x="375.737422" y="379.002168" transform="rotate(-0 375.737422 379.002168)">contains ≥ 1 O++ unit</text>
    </g>
   </g>
  </g>
 </g>
 <defs>
  <clipPath id="p49162a7e41">
   <rect x="42.77" y="15.768" width="451.51" height="317.86496"/>
  </clipPath>
 </defs>
</svg>
